<svg xmlns="http://www.w3.org/2000/svg" xmlns:xlink="http://www.w3.org/1999/xlink" width="300" zoomAndPan="magnify" viewBox="0 0 224.87999 74.999997" height="100" preserveAspectRatio="xMidYMid meet" version="1.2"><defs><clipPath id="da394bdc01"><path d="M 3.886719 8.8125 L 47 8.8125 L 47 66 L 3.886719 66 Z M 3.886719 8.8125 "/></clipPath><clipPath id="b8fc2630c7"><path d="M 45.378906 19.914062 L 27.699219 9.601562 C 27.167969 9.203125 26.546875 8.949219 25.890625 8.855469 C 25.238281 8.765625 24.566406 8.839844 23.949219 9.074219 L 5.136719 19.984375 C 4.21875 20.371094 3.96875 21.636719 3.898438 21.882812 L 3.898438 56.585938 C 3.855469 56.941406 3.910156 57.300781 4.050781 57.628906 C 4.195312 57.957031 4.421875 58.238281 4.714844 58.449219 L 17.125 65.734375 C 17.617188 65.832031 18.121094 65.832031 18.609375 65.730469 C 19.097656 65.628906 19.5625 65.429688 19.976562 65.148438 C 20.386719 64.867188 20.738281 64.507812 21.007812 64.085938 C 21.277344 63.667969 21.460938 63.199219 21.542969 62.710938 L 21.542969 45.429688 C 21.546875 45.351562 21.566406 45.277344 21.605469 45.210938 C 21.640625 45.144531 21.695312 45.085938 21.757812 45.042969 L 28.546875 41.207031 L 30.984375 39.796875 C 31.421875 39.5625 31.78125 39.207031 32.023438 38.78125 C 32.269531 38.351562 32.386719 37.863281 32.367188 37.367188 L 31.976562 24.523438 C 31.976562 24.449219 31.957031 24.378906 31.921875 24.316406 C 31.882812 24.253906 31.828125 24.203125 31.765625 24.171875 C 30.703125 23.574219 28.6875 22.445312 28.226562 21.988281 C 27.996094 21.820312 27.71875 21.730469 27.433594 21.730469 C 27.144531 21.730469 26.867188 21.820312 26.636719 21.988281 L 17.195312 27.550781 C 17 27.683594 16.84375 27.863281 16.730469 28.070312 C 16.621094 28.277344 16.5625 28.511719 16.558594 28.746094 L 16.558594 58.625 C 16.5625 58.699219 16.550781 58.769531 16.515625 58.835938 C 16.480469 58.898438 16.429688 58.953125 16.367188 58.988281 C 16.304688 59.023438 16.234375 59.042969 16.160156 59.042969 C 16.089844 59.039062 16.019531 59.019531 15.957031 58.980469 L 9.097656 55.28125 C 9.035156 55.246094 8.984375 55.195312 8.945312 55.132812 C 8.910156 55.074219 8.886719 55.003906 8.886719 54.929688 C 8.886719 52.222656 8.886719 26.597656 8.886719 25.261719 C 8.816406 24.917969 8.839844 24.5625 8.957031 24.234375 C 9.078125 23.90625 9.285156 23.617188 9.558594 23.398438 C 9.558594 23.398438 23.3125 15.476562 24.195312 14.914062 C 24.46875 14.746094 24.78125 14.65625 25.097656 14.65625 C 25.417969 14.65625 25.730469 14.746094 26 14.914062 C 26 14.914062 38.058594 21.953125 39.472656 22.550781 C 40.339844 23.03125 41.003906 23.804688 41.347656 24.734375 C 41.347656 25.71875 41.347656 39.023438 41.347656 40.570312 C 41.390625 41.03125 41.300781 41.496094 41.085938 41.90625 C 40.875 42.320312 40.546875 42.660156 40.144531 42.894531 L 26.777344 50.707031 C 26.714844 50.75 26.660156 50.804688 26.621094 50.875 C 26.585938 50.941406 26.566406 51.019531 26.566406 51.09375 L 26.566406 56.234375 C 26.570312 56.304688 26.589844 56.378906 26.628906 56.441406 C 26.667969 56.503906 26.71875 56.554688 26.785156 56.589844 C 26.847656 56.625 26.921875 56.644531 26.992188 56.640625 C 27.066406 56.640625 27.140625 56.621094 27.203125 56.585938 L 44.492188 46.519531 C 45.042969 46.273438 45.53125 45.90625 45.921875 45.449219 C 46.3125 44.996094 46.597656 44.457031 46.757812 43.878906 L 46.757812 22.761719 C 46.691406 21.671875 46.195312 20.648438 45.378906 19.914062 Z M 21.617188 31.386719 C 21.613281 31.164062 21.671875 30.945312 21.78125 30.753906 C 21.894531 30.5625 22.058594 30.402344 22.253906 30.292969 L 27.273438 27.445312 C 27.390625 27.375 27.527344 27.339844 27.660156 27.339844 C 27.796875 27.339844 27.933594 27.375 28.050781 27.445312 C 28.167969 27.511719 28.265625 27.609375 28.335938 27.726562 C 28.402344 27.84375 28.441406 27.976562 28.441406 28.113281 L 28.441406 34.660156 C 28.441406 34.828125 28.402344 34.992188 28.320312 35.140625 C 28.242188 35.289062 28.125 35.414062 27.980469 35.503906 L 22.074219 39.023438 C 22.007812 39.050781 21.933594 39.0625 21.863281 39.058594 C 21.789062 39.050781 21.71875 39.03125 21.65625 38.992188 C 21.59375 38.953125 21.542969 38.902344 21.503906 38.839844 C 21.46875 38.777344 21.445312 38.707031 21.4375 38.636719 Z M 21.617188 31.386719 "/></clipPath><linearGradient x1="-0.000000328688" gradientTransform="matrix(0.541117,0,0,0.541117,3.884816,8.818229)" y1="52.696999" x2="79.229205" gradientUnits="userSpaceOnUse" y2="52.696999" id="1556325046"><stop style="stop-color:#ea5b0c;stop-opacity:1;" offset="0"/><stop style="stop-color:#ea5c0c;stop-opacity:1;" offset="0.0078125"/><stop style="stop-color:#ea5d0c;stop-opacity:1;" offset="0.015625"/><stop style="stop-color:#eb5d0c;stop-opacity:1;" offset="0.0234375"/><stop style="stop-color:#eb5e0c;stop-opacity:1;" offset="0.03125"/><stop style="stop-color:#eb5f0c;stop-opacity:1;" offset="0.0390625"/><stop style="stop-color:#eb600c;stop-opacity:1;" offset="0.046875"/><stop style="stop-color:#eb600c;stop-opacity:1;" offset="0.0546875"/><stop style="stop-color:#eb610c;stop-opacity:1;" offset="0.0625"/><stop style="stop-color:#ec620c;stop-opacity:1;" offset="0.0703125"/><stop style="stop-color:#ec620c;stop-opacity:1;" offset="0.078125"/><stop style="stop-color:#ec630c;stop-opacity:1;" offset="0.0859375"/><stop style="stop-color:#ec640c;stop-opacity:1;" offset="0.09375"/><stop style="stop-color:#ec650b;stop-opacity:1;" offset="0.101563"/><stop style="stop-color:#ec650b;stop-opacity:1;" offset="0.109375"/><stop style="stop-color:#ed660b;stop-opacity:1;" offset="0.117188"/><stop style="stop-color:#ed670b;stop-opacity:1;" offset="0.125"/><stop style="stop-color:#ed680b;stop-opacity:1;" offset="0.132812"/><stop style="stop-color:#ed680b;stop-opacity:1;" offset="0.140625"/><stop style="stop-color:#ed690b;stop-opacity:1;" offset="0.148438"/><stop style="stop-color:#ed6a0b;stop-opacity:1;" offset="0.15625"/><stop style="stop-color:#ee6b0b;stop-opacity:1;" offset="0.164062"/><stop style="stop-color:#ee6b0b;stop-opacity:1;" offset="0.171875"/><stop style="stop-color:#ee6c0b;stop-opacity:1;" offset="0.179687"/><stop style="stop-color:#ee6d0b;stop-opacity:1;" offset="0.1875"/><stop style="stop-color:#ee6e0b;stop-opacity:1;" offset="0.195312"/><stop style="stop-color:#ee6e0b;stop-opacity:1;" offset="0.203125"/><stop style="stop-color:#ee6f0b;stop-opacity:1;" offset="0.210938"/><stop style="stop-color:#ef700b;stop-opacity:1;" offset="0.21875"/><stop style="stop-color:#ef700b;stop-opacity:1;" offset="0.226562"/><stop style="stop-color:#ef710b;stop-opacity:1;" offset="0.234375"/><stop style="stop-color:#ef720b;stop-opacity:1;" offset="0.242188"/><stop style="stop-color:#ef730b;stop-opacity:1;" offset="0.25"/><stop style="stop-color:#ef730b;stop-opacity:1;" offset="0.257812"/><stop style="stop-color:#f0740b;stop-opacity:1;" offset="0.265625"/><stop style="stop-color:#f0750b;stop-opacity:1;" offset="0.273438"/><stop style="stop-color:#f0760b;stop-opacity:1;" offset="0.28125"/><stop style="stop-color:#f0760b;stop-opacity:1;" offset="0.289062"/><stop style="stop-color:#f0770a;stop-opacity:1;" offset="0.296875"/><stop style="stop-color:#f0780a;stop-opacity:1;" offset="0.304687"/><stop style="stop-color:#f1790a;stop-opacity:1;" offset="0.3125"/><stop style="stop-color:#f1790a;stop-opacity:1;" offset="0.320312"/><stop style="stop-color:#f17a0a;stop-opacity:1;" offset="0.328125"/><stop style="stop-color:#f17b0a;stop-opacity:1;" offset="0.335937"/><stop style="stop-color:#f17c0a;stop-opacity:1;" offset="0.34375"/><stop style="stop-color:#f17c0a;stop-opacity:1;" offset="0.351562"/><stop style="stop-color:#f27d0a;stop-opacity:1;" offset="0.359375"/><stop style="stop-color:#f27e0a;stop-opacity:1;" offset="0.367187"/><stop style="stop-color:#f27f0a;stop-opacity:1;" offset="0.375"/><stop style="stop-color:#f27f0a;stop-opacity:1;" offset="0.382812"/><stop style="stop-color:#f2800a;stop-opacity:1;" offset="0.390625"/><stop style="stop-color:#f2810a;stop-opacity:1;" offset="0.398438"/><stop style="stop-color:#f3810a;stop-opacity:1;" offset="0.40625"/><stop style="stop-color:#f3820a;stop-opacity:1;" offset="0.414062"/><stop style="stop-color:#f3830a;stop-opacity:1;" offset="0.421875"/><stop style="stop-color:#f3840a;stop-opacity:1;" offset="0.429688"/><stop style="stop-color:#f3840a;stop-opacity:1;" offset="0.4375"/><stop style="stop-color:#f3850a;stop-opacity:1;" offset="0.445312"/><stop style="stop-color:#f4860a;stop-opacity:1;" offset="0.453125"/><stop style="stop-color:#f4870a;stop-opacity:1;" offset="0.460938"/><stop style="stop-color:#f4870a;stop-opacity:1;" offset="0.46875"/><stop style="stop-color:#f4880a;stop-opacity:1;" offset="0.476562"/><stop style="stop-color:#f4890a;stop-opacity:1;" offset="0.484375"/><stop style="stop-color:#f48a09;stop-opacity:1;" offset="0.492188"/><stop style="stop-color:#f58a09;stop-opacity:1;" offset="0.5"/><stop style="stop-color:#f58b09;stop-opacity:1;" offset="0.507812"/><stop style="stop-color:#f58c09;stop-opacity:1;" offset="0.515625"/><stop style="stop-color:#f58d09;stop-opacity:1;" offset="0.523438"/><stop style="stop-color:#f58d09;stop-opacity:1;" offset="0.53125"/><stop style="stop-color:#f58e09;stop-opacity:1;" offset="0.539062"/><stop style="stop-color:#f58f09;stop-opacity:1;" offset="0.546875"/><stop style="stop-color:#f68f09;stop-opacity:1;" offset="0.554687"/><stop style="stop-color:#f69009;stop-opacity:1;" offset="0.5625"/><stop style="stop-color:#f69109;stop-opacity:1;" offset="0.570312"/><stop style="stop-color:#f69209;stop-opacity:1;" offset="0.578125"/><stop style="stop-color:#f69209;stop-opacity:1;" offset="0.585938"/><stop style="stop-color:#f69309;stop-opacity:1;" offset="0.59375"/><stop style="stop-color:#f79409;stop-opacity:1;" offset="0.601562"/><stop style="stop-color:#f79509;stop-opacity:1;" offset="0.609375"/><stop style="stop-color:#f79509;stop-opacity:1;" offset="0.617188"/><stop style="stop-color:#f79609;stop-opacity:1;" offset="0.625"/><stop style="stop-color:#f79709;stop-opacity:1;" offset="0.632812"/><stop style="stop-color:#f79809;stop-opacity:1;" offset="0.640625"/><stop style="stop-color:#f89809;stop-opacity:1;" offset="0.648438"/><stop style="stop-color:#f89909;stop-opacity:1;" offset="0.65625"/><stop style="stop-color:#f89a09;stop-opacity:1;" offset="0.664062"/><stop style="stop-color:#f89b09;stop-opacity:1;" offset="0.671875"/><stop style="stop-color:#f89b09;stop-opacity:1;" offset="0.679688"/><stop style="stop-color:#f89c08;stop-opacity:1;" offset="0.6875"/><stop style="stop-color:#f99d08;stop-opacity:1;" offset="0.695312"/><stop style="stop-color:#f99d08;stop-opacity:1;" offset="0.703125"/><stop style="stop-color:#f99e08;stop-opacity:1;" offset="0.710938"/><stop style="stop-color:#f99f08;stop-opacity:1;" offset="0.71875"/><stop style="stop-color:#f9a008;stop-opacity:1;" offset="0.726562"/><stop style="stop-color:#f9a008;stop-opacity:1;" offset="0.734375"/><stop style="stop-color:#faa108;stop-opacity:1;" offset="0.742188"/><stop style="stop-color:#faa208;stop-opacity:1;" offset="0.75"/><stop style="stop-color:#faa308;stop-opacity:1;" offset="0.757812"/><stop style="stop-color:#faa308;stop-opacity:1;" offset="0.765625"/><stop style="stop-color:#faa408;stop-opacity:1;" offset="0.773437"/><stop style="stop-color:#faa508;stop-opacity:1;" offset="0.78125"/><stop style="stop-color:#fba608;stop-opacity:1;" offset="0.789062"/><stop style="stop-color:#fba608;stop-opacity:1;" offset="0.796875"/><stop style="stop-color:#fba708;stop-opacity:1;" offset="0.804687"/><stop style="stop-color:#fba808;stop-opacity:1;" offset="0.8125"/><stop style="stop-color:#fba908;stop-opacity:1;" offset="0.820312"/><stop style="stop-color:#fba908;stop-opacity:1;" offset="0.828125"/><stop style="stop-color:#fcaa08;stop-opacity:1;" offset="0.835937"/><stop style="stop-color:#fcab08;stop-opacity:1;" offset="0.84375"/><stop style="stop-color:#fcac08;stop-opacity:1;" offset="0.851562"/><stop style="stop-color:#fcac08;stop-opacity:1;" offset="0.859375"/><stop style="stop-color:#fcad08;stop-opacity:1;" offset="0.867188"/><stop style="stop-color:#fcae08;stop-opacity:1;" offset="0.875"/><stop style="stop-color:#fcae07;stop-opacity:1;" offset="0.882812"/><stop style="stop-color:#fdaf07;stop-opacity:1;" offset="0.890625"/><stop style="stop-color:#fdb007;stop-opacity:1;" offset="0.898438"/><stop style="stop-color:#fdb107;stop-opacity:1;" offset="0.90625"/><stop style="stop-color:#fdb107;stop-opacity:1;" offset="0.914062"/><stop style="stop-color:#fdb207;stop-opacity:1;" offset="0.921875"/><stop style="stop-color:#fdb307;stop-opacity:1;" offset="0.929688"/><stop style="stop-color:#feb407;stop-opacity:1;" offset="0.9375"/><stop style="stop-color:#feb407;stop-opacity:1;" offset="0.945312"/><stop style="stop-color:#feb507;stop-opacity:1;" offset="0.953125"/><stop style="stop-color:#feb607;stop-opacity:1;" offset="0.960938"/><stop style="stop-color:#feb707;stop-opacity:1;" offset="0.96875"/><stop style="stop-color:#feb707;stop-opacity:1;" offset="0.976562"/><stop style="stop-color:#ffb807;stop-opacity:1;" offset="0.984375"/><stop style="stop-color:#ffb907;stop-opacity:1;" offset="0.992188"/><stop style="stop-color:#ffba07;stop-opacity:1;" offset="1"/></linearGradient></defs><g id="ed6708e294"><g style="fill:#000000;fill-opacity:1;"><g transform="translate(50.412672, 44.436412)"><path style="stroke:none" d="M 1.609375 -22.140625 L 9.6875 -22.140625 C 11.9375 -22.140625 13.757812 -21.554688 15.15625 -20.390625 C 16.550781 -19.222656 17.25 -17.53125 17.25 -15.3125 C 17.25 -13.09375 16.539062 -11.351562 15.125 -10.09375 C 13.71875 -8.832031 11.90625 -8.203125 9.6875 -8.203125 L 6.65625 -8.203125 L 6.65625 0 L 1.609375 0 Z M 6.65625 -12.234375 L 8.078125 -12.234375 C 9.203125 -12.234375 10.125 -12.460938 10.84375 -12.921875 C 11.570312 -13.378906 11.9375 -14.125 11.9375 -15.15625 C 11.9375 -16.207031 11.570312 -16.960938 10.84375 -17.421875 C 10.125 -17.878906 9.203125 -18.109375 8.078125 -18.109375 L 6.65625 -18.109375 Z M 6.65625 -12.234375 "/></g></g><g style="fill:#000000;fill-opacity:1;"><g transform="translate(68.26808, 44.436412)"><path style="stroke:none" d="M 1.609375 -22.140625 L 9.53125 -22.140625 C 11.65625 -22.140625 13.382812 -21.566406 14.71875 -20.421875 C 16.0625 -19.285156 16.734375 -17.664062 16.734375 -15.5625 C 16.734375 -13.9375 16.328125 -12.570312 15.515625 -11.46875 C 14.703125 -10.363281 13.597656 -9.585938 12.203125 -9.140625 L 19.828125 0 L 13.40625 0 L 6.65625 -8.75 L 6.65625 0 L 1.609375 0 Z M 6.65625 -12.3125 L 7.25 -12.3125 C 7.707031 -12.3125 8.097656 -12.320312 8.421875 -12.34375 C 8.742188 -12.363281 9.109375 -12.425781 9.515625 -12.53125 C 9.929688 -12.632812 10.265625 -12.785156 10.515625 -12.984375 C 10.765625 -13.179688 10.976562 -13.46875 11.15625 -13.84375 C 11.332031 -14.21875 11.421875 -14.671875 11.421875 -15.203125 C 11.421875 -15.742188 11.332031 -16.203125 11.15625 -16.578125 C 10.976562 -16.953125 10.765625 -17.238281 10.515625 -17.4375 C 10.265625 -17.632812 9.929688 -17.785156 9.515625 -17.890625 C 9.109375 -18.003906 8.742188 -18.066406 8.421875 -18.078125 C 8.097656 -18.097656 7.707031 -18.109375 7.25 -18.109375 L 6.65625 -18.109375 Z M 6.65625 -12.3125 "/></g></g><g style="fill:#000000;fill-opacity:1;"><g transform="translate(87.463985, 44.436412)"><path style="stroke:none" d="M 0.609375 -11.078125 C 0.609375 -14.273438 1.695312 -16.984375 3.875 -19.203125 C 6.0625 -21.421875 8.695312 -22.53125 11.78125 -22.53125 C 14.875 -22.53125 17.5 -21.425781 19.65625 -19.21875 C 21.820312 -17.007812 22.90625 -14.296875 22.90625 -11.078125 C 22.90625 -7.835938 21.84375 -5.113281 19.71875 -2.90625 C 17.59375 -0.695312 14.945312 0.40625 11.78125 0.40625 C 8.539062 0.40625 5.867188 -0.6875 3.765625 -2.875 C 1.660156 -5.070312 0.609375 -7.804688 0.609375 -11.078125 Z M 6.0625 -11.078125 C 6.0625 -9.921875 6.238281 -8.863281 6.59375 -7.90625 C 6.957031 -6.945312 7.582031 -6.132812 8.46875 -5.46875 C 9.363281 -4.8125 10.46875 -4.484375 11.78125 -4.484375 C 13.65625 -4.484375 15.070312 -5.125 16.03125 -6.40625 C 16.988281 -7.695312 17.46875 -9.253906 17.46875 -11.078125 C 17.46875 -12.890625 16.976562 -14.441406 16 -15.734375 C 15.03125 -17.023438 13.625 -17.671875 11.78125 -17.671875 C 9.957031 -17.671875 8.546875 -17.023438 7.546875 -15.734375 C 6.554688 -14.441406 6.0625 -12.890625 6.0625 -11.078125 Z M 6.0625 -11.078125 "/></g></g><g style="fill:#ff7300;fill-opacity:1;"><g transform="translate(110.978004, 44.436412)"><path style="stroke:none" d="M 11.234375 -22.140625 L 11.234375 -6.25 C 11.234375 -4.082031 10.640625 -2.429688 9.453125 -1.296875 C 8.265625 -0.160156 6.5625 0.40625 4.34375 0.40625 C 3.75 0.40625 3.164062 0.332031 2.59375 0.1875 C 2.03125 0.0390625 1.550781 -0.128906 1.15625 -0.328125 C 0.757812 -0.535156 0.40625 -0.742188 0.09375 -0.953125 C -0.21875 -1.171875 -0.445312 -1.351562 -0.59375 -1.5 L -0.828125 -1.71875 L 0.78125 -5.921875 C 1.832031 -4.921875 2.789062 -4.421875 3.65625 -4.421875 C 4.414062 -4.421875 5.03125 -4.675781 5.5 -5.1875 C 5.96875 -5.695312 6.203125 -6.476562 6.203125 -7.53125 L 6.203125 -22.140625 Z M 11.234375 -22.140625 "/></g></g><g style="fill:#ff7300;fill-opacity:1;"><g transform="translate(123.551864, 44.436412)"><path style="stroke:none" d="M 6.65625 -22.140625 L 6.65625 0 L 1.609375 0 L 1.609375 -22.140625 Z M 6.65625 -22.140625 "/></g></g><g style="fill:#ff7300;fill-opacity:1;"><g transform="translate(131.809324, 44.436412)"><path style="stroke:none" d="M 6.65625 -13.734375 L 6.65625 0 L 1.609375 0 L 1.609375 -22.140625 L 6.65625 -22.140625 L 15.453125 -8.390625 L 15.5 -8.390625 L 15.5 -22.140625 L 20.546875 -22.140625 L 20.546875 0 L 15.5 0 L 6.703125 -13.734375 Z M 6.65625 -13.734375 "/></g></g><g style="fill:#ff7300;fill-opacity:1;"><g transform="translate(153.95432, 44.436412)"><path style="stroke:none" d="M 21.625 -12.390625 L 21.625 -7.59375 C 21.050781 -4.96875 19.796875 -2.976562 17.859375 -1.625 C 15.929688 -0.269531 13.78125 0.40625 11.40625 0.40625 C 8.414062 0.40625 5.867188 -0.707031 3.765625 -2.9375 C 1.660156 -5.175781 0.609375 -7.878906 0.609375 -11.046875 C 0.609375 -14.265625 1.632812 -16.984375 3.6875 -19.203125 C 5.75 -21.421875 8.320312 -22.53125 11.40625 -22.53125 C 15 -22.53125 17.84375 -21.269531 19.9375 -18.75 L 16.640625 -15.125 C 15.453125 -17.019531 13.804688 -17.96875 11.703125 -17.96875 C 10.140625 -17.96875 8.804688 -17.289062 7.703125 -15.9375 C 6.609375 -14.59375 6.0625 -12.960938 6.0625 -11.046875 C 6.0625 -9.171875 6.609375 -7.566406 7.703125 -6.234375 C 8.804688 -4.898438 10.140625 -4.234375 11.703125 -4.234375 C 12.984375 -4.234375 14.101562 -4.625 15.0625 -5.40625 C 16.019531 -6.1875 16.5 -7.21875 16.5 -8.5 L 11.40625 -8.5 L 11.40625 -12.390625 Z M 21.625 -12.390625 "/></g></g><g style="fill:#000000;fill-opacity:1;"><g transform="translate(176.181486, 44.436412)"><path style="stroke:none" d=""/></g></g><g style="fill:#000000;fill-opacity:1;"><g transform="translate(51.217952, 51.848915)"><path style="stroke:none" d="M 3.109375 -3.203125 C 2.890625 -3.328125 2.671875 -3.421875 2.453125 -3.484375 C 2.242188 -3.554688 2.050781 -3.59375 1.875 -3.59375 C 1.664062 -3.59375 1.5 -3.550781 1.375 -3.46875 C 1.25 -3.394531 1.1875 -3.285156 1.1875 -3.140625 C 1.1875 -3.015625 1.226562 -2.90625 1.3125 -2.8125 C 1.394531 -2.726562 1.492188 -2.660156 1.609375 -2.609375 C 1.734375 -2.566406 1.90625 -2.515625 2.125 -2.453125 C 2.40625 -2.359375 2.632812 -2.269531 2.8125 -2.1875 C 2.988281 -2.101562 3.140625 -1.976562 3.265625 -1.8125 C 3.390625 -1.65625 3.453125 -1.445312 3.453125 -1.1875 C 3.453125 -0.9375 3.382812 -0.71875 3.25 -0.53125 C 3.113281 -0.351562 2.925781 -0.210938 2.6875 -0.109375 C 2.445312 -0.00390625 2.175781 0.046875 1.875 0.046875 C 1.550781 0.046875 1.238281 -0.0078125 0.9375 -0.125 C 0.632812 -0.25 0.375 -0.414062 0.15625 -0.625 L 0.46875 -1.234375 C 0.675781 -1.046875 0.90625 -0.894531 1.15625 -0.78125 C 1.414062 -0.675781 1.660156 -0.625 1.890625 -0.625 C 2.128906 -0.625 2.316406 -0.671875 2.453125 -0.765625 C 2.597656 -0.859375 2.671875 -0.984375 2.671875 -1.140625 C 2.671875 -1.273438 2.628906 -1.382812 2.546875 -1.46875 C 2.460938 -1.550781 2.359375 -1.617188 2.234375 -1.671875 C 2.109375 -1.722656 1.941406 -1.78125 1.734375 -1.84375 C 1.441406 -1.925781 1.207031 -2.003906 1.03125 -2.078125 C 0.863281 -2.160156 0.71875 -2.28125 0.59375 -2.4375 C 0.46875 -2.601562 0.40625 -2.816406 0.40625 -3.078125 C 0.40625 -3.316406 0.46875 -3.523438 0.59375 -3.703125 C 0.71875 -3.878906 0.894531 -4.015625 1.125 -4.109375 C 1.363281 -4.210938 1.632812 -4.265625 1.9375 -4.265625 C 2.195312 -4.265625 2.453125 -4.222656 2.703125 -4.140625 C 2.960938 -4.054688 3.195312 -3.953125 3.40625 -3.828125 Z M 3.109375 -3.203125 "/></g></g><g style="fill:#000000;fill-opacity:1;"><g transform="translate(58.923857, 51.848915)"><path style="stroke:none" d="M 2.4375 -4.25 C 2.84375 -4.25 3.210938 -4.15625 3.546875 -3.96875 C 3.890625 -3.78125 4.160156 -3.519531 4.359375 -3.1875 C 4.554688 -2.863281 4.65625 -2.503906 4.65625 -2.109375 C 4.65625 -1.703125 4.554688 -1.332031 4.359375 -1 C 4.160156 -0.675781 3.890625 -0.421875 3.546875 -0.234375 C 3.210938 -0.046875 2.84375 0.046875 2.4375 0.046875 C 2.019531 0.046875 1.640625 -0.046875 1.296875 -0.234375 C 0.960938 -0.421875 0.695312 -0.675781 0.5 -1 C 0.300781 -1.332031 0.203125 -1.703125 0.203125 -2.109375 C 0.203125 -2.503906 0.300781 -2.863281 0.5 -3.1875 C 0.695312 -3.519531 0.960938 -3.78125 1.296875 -3.96875 C 1.640625 -4.15625 2.019531 -4.25 2.4375 -4.25 Z M 2.4375 -3.609375 C 2.164062 -3.609375 1.910156 -3.539062 1.671875 -3.40625 C 1.441406 -3.269531 1.257812 -3.085938 1.125 -2.859375 C 0.988281 -2.628906 0.921875 -2.378906 0.921875 -2.109375 C 0.921875 -1.828125 0.988281 -1.570312 1.125 -1.34375 C 1.269531 -1.113281 1.457031 -0.929688 1.6875 -0.796875 C 1.914062 -0.660156 2.164062 -0.59375 2.4375 -0.59375 C 2.707031 -0.59375 2.957031 -0.660156 3.1875 -0.796875 C 3.414062 -0.929688 3.597656 -1.113281 3.734375 -1.34375 C 3.867188 -1.570312 3.9375 -1.828125 3.9375 -2.109375 C 3.9375 -2.378906 3.867188 -2.628906 3.734375 -2.859375 C 3.597656 -3.085938 3.414062 -3.269531 3.1875 -3.40625 C 2.957031 -3.539062 2.707031 -3.609375 2.4375 -3.609375 Z M 2.4375 -3.609375 "/></g></g><g style="fill:#000000;fill-opacity:1;"><g transform="translate(67.757165, 51.848915)"><path style="stroke:none" d="M 0.546875 0 L 0.546875 -4.203125 L 1.265625 -4.203125 L 1.265625 -0.640625 L 3.078125 -0.640625 L 3.078125 0 Z M 0.546875 0 "/></g></g><g style="fill:#000000;fill-opacity:1;"><g transform="translate(74.935352, 51.848915)"><path style="stroke:none" d="M 1.171875 -1.71875 C 1.171875 -1.363281 1.269531 -1.085938 1.46875 -0.890625 C 1.675781 -0.691406 1.945312 -0.59375 2.28125 -0.59375 C 2.625 -0.59375 2.890625 -0.691406 3.078125 -0.890625 C 3.273438 -1.085938 3.375 -1.363281 3.375 -1.71875 L 3.375 -4.203125 L 4.09375 -4.203125 L 4.09375 -1.71875 C 4.09375 -1.351562 4.019531 -1.035156 3.875 -0.765625 C 3.726562 -0.503906 3.519531 -0.300781 3.25 -0.15625 C 2.976562 -0.0195312 2.65625 0.046875 2.28125 0.046875 C 1.914062 0.046875 1.59375 -0.0195312 1.3125 -0.15625 C 1.039062 -0.300781 0.832031 -0.503906 0.6875 -0.765625 C 0.539062 -1.035156 0.46875 -1.351562 0.46875 -1.71875 L 0.46875 -4.203125 L 1.171875 -4.203125 Z M 1.171875 -1.71875 "/></g></g><g style="fill:#000000;fill-opacity:1;"><g transform="translate(83.462824, 51.848915)"><path style="stroke:none" d="M 2.484375 0.3125 C 2.648438 0.332031 2.769531 0.382812 2.84375 0.46875 C 2.925781 0.5625 2.96875 0.664062 2.96875 0.78125 C 2.96875 0.957031 2.90625 1.085938 2.78125 1.171875 C 2.65625 1.265625 2.488281 1.3125 2.28125 1.3125 C 2.082031 1.3125 1.890625 1.269531 1.703125 1.1875 L 1.84375 0.796875 C 1.957031 0.835938 2.078125 0.859375 2.203125 0.859375 C 2.273438 0.859375 2.332031 0.84375 2.375 0.8125 C 2.414062 0.789062 2.4375 0.757812 2.4375 0.71875 C 2.4375 0.664062 2.410156 0.625 2.359375 0.59375 C 2.316406 0.570312 2.242188 0.5625 2.140625 0.5625 L 1.953125 0.5625 L 2.125 0.046875 C 1.757812 0.00390625 1.429688 -0.113281 1.140625 -0.3125 C 0.847656 -0.519531 0.617188 -0.773438 0.453125 -1.078125 C 0.285156 -1.390625 0.203125 -1.734375 0.203125 -2.109375 C 0.203125 -2.503906 0.296875 -2.863281 0.484375 -3.1875 C 0.679688 -3.519531 0.945312 -3.78125 1.28125 -3.96875 C 1.625 -4.15625 2 -4.25 2.40625 -4.25 C 2.707031 -4.25 3 -4.1875 3.28125 -4.0625 C 3.5625 -3.945312 3.804688 -3.789062 4.015625 -3.59375 L 3.59375 -3.078125 C 3.4375 -3.242188 3.253906 -3.375 3.046875 -3.46875 C 2.835938 -3.5625 2.628906 -3.609375 2.421875 -3.609375 C 2.148438 -3.609375 1.894531 -3.539062 1.65625 -3.40625 C 1.425781 -3.28125 1.242188 -3.101562 1.109375 -2.875 C 0.984375 -2.644531 0.921875 -2.390625 0.921875 -2.109375 C 0.921875 -1.835938 0.988281 -1.585938 1.125 -1.359375 C 1.257812 -1.128906 1.441406 -0.945312 1.671875 -0.8125 C 1.898438 -0.675781 2.148438 -0.609375 2.421875 -0.609375 C 2.628906 -0.609375 2.835938 -0.648438 3.046875 -0.734375 C 3.253906 -0.828125 3.4375 -0.953125 3.59375 -1.109375 L 4.015625 -0.640625 C 3.816406 -0.453125 3.59375 -0.296875 3.34375 -0.171875 C 3.101562 -0.0546875 2.851562 0.015625 2.59375 0.046875 Z M 2.484375 0.3125 "/></g></g><g style="fill:#000000;fill-opacity:1;"><g transform="translate(91.528544, 51.848915)"><path style="stroke:none" d="M 2.4375 -4.25 C 2.84375 -4.25 3.210938 -4.15625 3.546875 -3.96875 C 3.890625 -3.78125 4.160156 -3.519531 4.359375 -3.1875 C 4.554688 -2.863281 4.65625 -2.503906 4.65625 -2.109375 C 4.65625 -1.703125 4.554688 -1.332031 4.359375 -1 C 4.160156 -0.675781 3.890625 -0.421875 3.546875 -0.234375 C 3.210938 -0.046875 2.84375 0.046875 2.4375 0.046875 C 2.019531 0.046875 1.640625 -0.046875 1.296875 -0.234375 C 0.960938 -0.421875 0.695312 -0.675781 0.5 -1 C 0.300781 -1.332031 0.203125 -1.703125 0.203125 -2.109375 C 0.203125 -2.503906 0.300781 -2.863281 0.5 -3.1875 C 0.695312 -3.519531 0.960938 -3.78125 1.296875 -3.96875 C 1.640625 -4.15625 2.019531 -4.25 2.4375 -4.25 Z M 2.4375 -3.609375 C 2.164062 -3.609375 1.910156 -3.539062 1.671875 -3.40625 C 1.441406 -3.269531 1.257812 -3.085938 1.125 -2.859375 C 0.988281 -2.628906 0.921875 -2.378906 0.921875 -2.109375 C 0.921875 -1.828125 0.988281 -1.570312 1.125 -1.34375 C 1.269531 -1.113281 1.457031 -0.929688 1.6875 -0.796875 C 1.914062 -0.660156 2.164062 -0.59375 2.4375 -0.59375 C 2.707031 -0.59375 2.957031 -0.660156 3.1875 -0.796875 C 3.414062 -0.929688 3.597656 -1.113281 3.734375 -1.34375 C 3.867188 -1.570312 3.9375 -1.828125 3.9375 -2.109375 C 3.9375 -2.378906 3.867188 -2.628906 3.734375 -2.859375 C 3.597656 -3.085938 3.414062 -3.269531 3.1875 -3.40625 C 2.957031 -3.539062 2.707031 -3.609375 2.4375 -3.609375 Z M 3.390625 -5.359375 C 3.390625 -5.117188 3.347656 -4.925781 3.265625 -4.78125 C 3.191406 -4.632812 3.066406 -4.5625 2.890625 -4.5625 C 2.796875 -4.5625 2.710938 -4.578125 2.640625 -4.609375 C 2.566406 -4.640625 2.472656 -4.679688 2.359375 -4.734375 C 2.304688 -4.765625 2.253906 -4.789062 2.203125 -4.8125 C 2.160156 -4.84375 2.125 -4.859375 2.09375 -4.859375 C 2.019531 -4.859375 1.972656 -4.832031 1.953125 -4.78125 C 1.929688 -4.738281 1.921875 -4.671875 1.921875 -4.578125 L 1.453125 -4.578125 C 1.453125 -4.816406 1.488281 -5.007812 1.5625 -5.15625 C 1.644531 -5.300781 1.78125 -5.375 1.96875 -5.375 C 2.050781 -5.375 2.125 -5.359375 2.1875 -5.328125 C 2.257812 -5.304688 2.359375 -5.265625 2.484375 -5.203125 C 2.535156 -5.171875 2.585938 -5.140625 2.640625 -5.109375 C 2.691406 -5.085938 2.734375 -5.078125 2.765625 -5.078125 C 2.828125 -5.078125 2.867188 -5.097656 2.890625 -5.140625 C 2.910156 -5.191406 2.921875 -5.265625 2.921875 -5.359375 Z M 3.390625 -5.359375 "/></g></g><g style="fill:#000000;fill-opacity:1;"><g transform="translate(100.361853, 51.848915)"><path style="stroke:none" d="M 0.546875 0 L 0.546875 -4.203125 L 3.546875 -4.203125 L 3.546875 -3.5625 L 1.265625 -3.5625 L 1.265625 -2.421875 L 3.3125 -2.421875 L 3.3125 -1.796875 L 1.265625 -1.796875 L 1.265625 -0.640625 L 3.625 -0.640625 L 3.625 0 Z M 0.546875 0 "/></g></g><g style="fill:#000000;fill-opacity:1;"><g transform="translate(108.271651, 51.848915)"><path style="stroke:none" d="M 3.109375 -3.203125 C 2.890625 -3.328125 2.671875 -3.421875 2.453125 -3.484375 C 2.242188 -3.554688 2.050781 -3.59375 1.875 -3.59375 C 1.664062 -3.59375 1.5 -3.550781 1.375 -3.46875 C 1.25 -3.394531 1.1875 -3.285156 1.1875 -3.140625 C 1.1875 -3.015625 1.226562 -2.90625 1.3125 -2.8125 C 1.394531 -2.726562 1.492188 -2.660156 1.609375 -2.609375 C 1.734375 -2.566406 1.90625 -2.515625 2.125 -2.453125 C 2.40625 -2.359375 2.632812 -2.269531 2.8125 -2.1875 C 2.988281 -2.101562 3.140625 -1.976562 3.265625 -1.8125 C 3.390625 -1.65625 3.453125 -1.445312 3.453125 -1.1875 C 3.453125 -0.9375 3.382812 -0.71875 3.25 -0.53125 C 3.113281 -0.351562 2.925781 -0.210938 2.6875 -0.109375 C 2.445312 -0.00390625 2.175781 0.046875 1.875 0.046875 C 1.550781 0.046875 1.238281 -0.0078125 0.9375 -0.125 C 0.632812 -0.25 0.375 -0.414062 0.15625 -0.625 L 0.46875 -1.234375 C 0.675781 -1.046875 0.90625 -0.894531 1.15625 -0.78125 C 1.414062 -0.675781 1.660156 -0.625 1.890625 -0.625 C 2.128906 -0.625 2.316406 -0.671875 2.453125 -0.765625 C 2.597656 -0.859375 2.671875 -0.984375 2.671875 -1.140625 C 2.671875 -1.273438 2.628906 -1.382812 2.546875 -1.46875 C 2.460938 -1.550781 2.359375 -1.617188 2.234375 -1.671875 C 2.109375 -1.722656 1.941406 -1.78125 1.734375 -1.84375 C 1.441406 -1.925781 1.207031 -2.003906 1.03125 -2.078125 C 0.863281 -2.160156 0.71875 -2.28125 0.59375 -2.4375 C 0.46875 -2.601562 0.40625 -2.816406 0.40625 -3.078125 C 0.40625 -3.316406 0.46875 -3.523438 0.59375 -3.703125 C 0.71875 -3.878906 0.894531 -4.015625 1.125 -4.109375 C 1.363281 -4.210938 1.632812 -4.265625 1.9375 -4.265625 C 2.195312 -4.265625 2.453125 -4.222656 2.703125 -4.140625 C 2.960938 -4.054688 3.195312 -3.953125 3.40625 -3.828125 Z M 3.109375 -3.203125 "/></g></g><g style="fill:#000000;fill-opacity:1;"><g transform="translate(115.977556, 51.848915)"><path style="stroke:none" d=""/></g></g><g style="fill:#000000;fill-opacity:1;"><g transform="translate(121.572573, 51.848915)"><path style="stroke:none" d="M 0.546875 0 L 0.546875 -4.203125 L 3.546875 -4.203125 L 3.546875 -3.5625 L 1.265625 -3.5625 L 1.265625 -2.421875 L 3.3125 -2.421875 L 3.3125 -1.796875 L 1.265625 -1.796875 L 1.265625 -0.640625 L 3.625 -0.640625 L 3.625 0 Z M 0.546875 0 "/></g></g><g style="fill:#000000;fill-opacity:1;"><g transform="translate(129.482372, 51.848915)"><path style="stroke:none" d="M 0.546875 0 L 0.546875 -4.203125 L 1.375 -4.203125 L 2.828125 -1.390625 L 4.265625 -4.203125 L 5.09375 -4.203125 L 5.09375 0 L 4.4375 0 L 4.421875 -3.15625 L 3.046875 -0.4375 L 2.59375 -0.4375 L 1.203125 -3.15625 L 1.203125 0 Z M 0.546875 0 "/></g></g><g style="fill:#000000;fill-opacity:1;"><g transform="translate(139.09527, 51.848915)"><path style="stroke:none" d=""/></g></g><g style="fill:#000000;fill-opacity:1;"><g transform="translate(144.690288, 51.848915)"><path style="stroke:none" d="M 2.21875 -4.203125 C 2.75 -4.203125 3.160156 -4.078125 3.453125 -3.828125 C 3.742188 -3.578125 3.890625 -3.222656 3.890625 -2.765625 C 3.890625 -2.285156 3.742188 -1.914062 3.453125 -1.65625 C 3.160156 -1.394531 2.75 -1.265625 2.21875 -1.265625 L 1.265625 -1.265625 L 1.265625 0 L 0.546875 0 L 0.546875 -4.203125 Z M 2.203125 -1.90625 C 2.523438 -1.90625 2.769531 -1.972656 2.9375 -2.109375 C 3.113281 -2.253906 3.203125 -2.46875 3.203125 -2.75 C 3.203125 -3.019531 3.113281 -3.222656 2.9375 -3.359375 C 2.769531 -3.492188 2.523438 -3.5625 2.203125 -3.5625 L 1.265625 -3.5625 L 1.265625 -1.90625 Z M 2.203125 -1.90625 "/></g></g><g style="fill:#000000;fill-opacity:1;"><g transform="translate(152.702029, 51.848915)"><path style="stroke:none" d="M 0.546875 0 L 0.546875 -4.203125 L 3.546875 -4.203125 L 3.546875 -3.5625 L 1.265625 -3.5625 L 1.265625 -2.421875 L 3.3125 -2.421875 L 3.3125 -1.796875 L 1.265625 -1.796875 L 1.265625 -0.640625 L 3.625 -0.640625 L 3.625 0 Z M 0.546875 0 "/></g></g><g style="fill:#000000;fill-opacity:1;"><g transform="translate(160.611827, 51.848915)"><path style="stroke:none" d="M 4.421875 0 L 3.671875 0 L 3.265625 -0.953125 L 1.140625 -0.953125 L 0.75 0 L 0 0 L 1.859375 -4.203125 L 2.59375 -4.203125 Z M 2.203125 -3.4375 L 1.40625 -1.578125 L 3 -1.578125 Z M 2.203125 -3.4375 "/></g></g><g style="fill:#000000;fill-opacity:1;"><g transform="translate(169.013367, 51.848915)"><path style="stroke:none" d="M 2.28125 -4.203125 C 2.6875 -4.203125 3.054688 -4.109375 3.390625 -3.921875 C 3.722656 -3.742188 3.984375 -3.492188 4.171875 -3.171875 C 4.359375 -2.859375 4.453125 -2.5 4.453125 -2.09375 C 4.453125 -1.695312 4.351562 -1.335938 4.15625 -1.015625 C 3.96875 -0.703125 3.707031 -0.453125 3.375 -0.265625 C 3.050781 -0.0859375 2.675781 0 2.25 0 L 0.546875 0 L 0.546875 -4.203125 Z M 2.296875 -0.640625 C 2.554688 -0.640625 2.796875 -0.703125 3.015625 -0.828125 C 3.242188 -0.953125 3.421875 -1.125 3.546875 -1.34375 C 3.671875 -1.5625 3.734375 -1.8125 3.734375 -2.09375 C 3.734375 -2.375 3.664062 -2.625 3.53125 -2.84375 C 3.40625 -3.070312 3.226562 -3.25 3 -3.375 C 2.78125 -3.5 2.535156 -3.5625 2.265625 -3.5625 L 1.265625 -3.5625 L 1.265625 -0.640625 Z M 2.296875 -0.640625 "/></g></g><g clip-rule="nonzero" clip-path="url(#da394bdc01)"><g clip-rule="nonzero" clip-path="url(#b8fc2630c7)"><path style=" stroke:none;fill-rule:nonzero;fill:url(#linear0);" d="M 3.886719 8.8125 L 3.886719 65.832031 L 46.757812 65.832031 L 46.757812 8.8125 Z M 3.886719 8.8125 "/></g></g></g></svg>