<svg width="292" height="89" viewBox="0 0 292 89" fill="none" xmlns="http://www.w3.org/2000/svg">
<path d="M88.72 33.44C92.4 33.44 95.08 34.24 96.76 35.84C98.4667 37.4133 99.32 39.5867 99.32 42.36C99.32 43.6133 99.1333 44.8133 98.76 45.96C98.3867 47.08 97.76 48.0933 96.88 49C96.0267 49.88 94.8933 50.5733 93.48 51.08C92.0667 51.5867 90.32 51.84 88.24 51.84H85.64V62H79.6V33.44H88.72ZM88.4 38.4H85.64V46.88H87.64C88.7867 46.88 89.7733 46.7333 90.6 46.44C91.4267 46.1467 92.0667 45.68 92.52 45.04C92.9733 44.4 93.2 43.5733 93.2 42.56C93.2 41.1467 92.8133 40.1067 92.04 39.44C91.2667 38.7467 90.0533 38.4 88.4 38.4ZM110.437 33.44C113.024 33.44 115.157 33.76 116.837 34.4C118.517 35.0133 119.771 35.96 120.597 37.24C121.424 38.4933 121.837 40.08 121.837 42C121.837 43.3067 121.584 44.4533 121.077 45.44C120.597 46.4 119.944 47.2267 119.117 47.92C118.317 48.5867 117.451 49.1333 116.517 49.56L124.917 62H118.197L111.397 51.04H108.157V62H102.117V33.44H110.437ZM109.997 38.4H108.157V46.12H110.117C111.451 46.12 112.531 45.9733 113.357 45.68C114.184 45.3867 114.784 44.9467 115.157 44.36C115.531 43.7467 115.717 43.0133 115.717 42.16C115.717 41.2533 115.504 40.5333 115.077 40C114.677 39.44 114.051 39.04 113.197 38.8C112.371 38.5333 111.304 38.4 109.997 38.4ZM151.843 47.68C151.843 49.8933 151.563 51.9067 151.003 53.72C150.47 55.5067 149.643 57.0533 148.523 58.36C147.43 59.6667 146.017 60.6667 144.283 61.36C142.577 62.0533 140.563 62.4 138.243 62.4C135.923 62.4 133.897 62.0533 132.163 61.36C130.457 60.64 129.043 59.64 127.923 58.36C126.83 57.0533 126.003 55.4933 125.443 53.68C124.91 51.8667 124.643 49.8533 124.643 47.64C124.643 44.68 125.123 42.1067 126.083 39.92C127.07 37.7333 128.563 36.04 130.563 34.84C132.59 33.6133 135.163 33 138.283 33C141.377 33 143.923 33.6133 145.923 34.84C147.923 36.04 149.403 37.7467 150.363 39.96C151.35 42.1467 151.843 44.72 151.843 47.68ZM131.003 47.68C131.003 49.68 131.257 51.4 131.763 52.84C132.27 54.28 133.057 55.3867 134.123 56.16C135.19 56.9333 136.563 57.32 138.243 57.32C139.977 57.32 141.363 56.9333 142.403 56.16C143.47 55.3867 144.243 54.28 144.723 52.84C145.23 51.4 145.483 49.68 145.483 47.68C145.483 44.6667 144.923 42.3067 143.803 40.6C142.683 38.8933 140.843 38.04 138.283 38.04C136.577 38.04 135.19 38.4267 134.123 39.2C133.057 39.9733 132.27 41.08 131.763 42.52C131.257 43.96 131.003 45.68 131.003 47.68Z" fill="url(#paint0_linear_433_5)"/>
<path d="M157.359 62.44C156.346 62.44 155.453 62.3733 154.679 62.24C153.906 62.1067 153.239 61.9467 152.679 61.76V56.64C153.266 56.8267 153.879 57 154.519 57.16C155.186 57.2933 155.893 57.36 156.639 57.36C157.359 57.36 157.999 57.2267 158.559 56.96C159.119 56.6933 159.559 56.1867 159.879 55.44C160.199 54.6933 160.359 53.6267 160.359 52.24V33.44H166.399V52.2C166.399 54.6533 166.013 56.64 165.239 58.16C164.493 59.6533 163.439 60.7467 162.079 61.44C160.719 62.1067 159.146 62.44 157.359 62.44ZM170.802 62V33.44H176.842V62H170.802ZM206.764 62H199.084L186.644 40.4H186.484C186.51 41.0667 186.537 41.7467 186.564 42.44C186.59 43.1067 186.617 43.7867 186.644 44.48C186.697 45.1467 186.737 45.8267 186.764 46.52C186.79 47.1867 186.817 47.8667 186.844 48.56V62H181.444V33.44H189.084L201.484 54.84H201.604C201.577 54.1733 201.55 53.52 201.524 52.88C201.497 52.2133 201.47 51.56 201.444 50.92C201.444 50.2533 201.43 49.6 201.404 48.96C201.377 48.2933 201.35 47.6267 201.324 46.96V33.44H206.764V62ZM222.223 45.96H233.543V60.76C232.049 61.2667 230.489 61.6667 228.863 61.96C227.263 62.2533 225.436 62.4 223.383 62.4C220.556 62.4 218.143 61.84 216.143 60.72C214.169 59.6 212.663 57.9467 211.623 55.76C210.609 53.5733 210.103 50.88 210.103 47.68C210.103 44.6933 210.676 42.1067 211.823 39.92C212.996 37.7333 214.689 36.04 216.903 34.84C219.116 33.64 221.823 33.04 225.023 33.04C226.543 33.04 228.036 33.2 229.503 33.52C230.969 33.84 232.303 34.2667 233.503 34.8L231.503 39.64C230.623 39.1867 229.623 38.8133 228.503 38.52C227.383 38.2267 226.209 38.08 224.983 38.08C223.223 38.08 221.689 38.48 220.383 39.28C219.103 40.08 218.103 41.2133 217.383 42.68C216.689 44.12 216.343 45.8267 216.343 47.8C216.343 49.6667 216.596 51.32 217.103 52.76C217.609 54.2 218.409 55.3333 219.503 56.16C220.596 56.96 222.023 57.36 223.783 57.36C224.369 57.36 224.876 57.3467 225.303 57.32C225.756 57.2667 226.169 57.2133 226.543 57.16C226.916 57.08 227.276 57.0133 227.623 56.96V51H222.223V45.96Z" fill="#EA5B0C"/>
<path d="M47.4701 24.6634L27.3386 12.9217C26.7358 12.4715 26.0285 12.1803 25.2823 12.0752C24.5362 11.9701 23.7754 12.0545 23.0708 12.3206L1.6509 24.7435C0.604067 25.1843 0.322202 26.627 0.241676 26.9075V66.4205C0.19189 66.8245 0.251499 67.2344 0.414313 67.6078C0.577126 67.9813 0.83721 68.3046 1.16771 68.5444L15.3 76.8397C15.8585 76.9494 16.4334 76.9469 16.9908 76.8323C17.5483 76.7176 18.0771 76.4931 18.546 76.1719C19.015 75.8508 19.4147 75.4395 19.7216 74.9624C20.0284 74.4852 20.2363 73.9516 20.3329 73.3933V53.717C20.336 53.6299 20.3594 53.5447 20.4013 53.4682C20.4433 53.3917 20.5026 53.3259 20.5745 53.2762L28.3049 48.9081L31.0831 47.3052C31.5782 47.0362 31.9877 46.6346 32.2652 46.1459C32.5427 45.6572 32.6772 45.1009 32.6534 44.54L32.2105 29.9131C32.212 29.8304 32.1901 29.749 32.1474 29.6782C32.1047 29.6073 32.0428 29.5498 31.9689 29.5123C30.761 28.831 28.466 27.5487 27.9426 27.0277C27.68 26.8357 27.3626 26.7321 27.0367 26.7321C26.7108 26.7321 26.3934 26.8357 26.1308 27.0277L15.3805 33.3594C15.1594 33.5126 14.9783 33.7162 14.8522 33.9532C14.7262 34.1902 14.6588 34.4538 14.6558 34.7219V68.7448C14.6618 68.8268 14.6447 68.9088 14.6063 68.9816C14.5679 69.0544 14.5098 69.115 14.4386 69.1567C14.3674 69.1984 14.286 69.2194 14.2034 69.2174C14.1208 69.2154 14.0404 69.1905 13.9714 69.1455L6.16033 64.9377C6.08915 64.8968 6.0296 64.8386 5.98733 64.7685C5.94506 64.6984 5.92148 64.6187 5.91877 64.537C5.91877 61.4513 5.91877 32.2774 5.91877 30.7546C5.83767 30.3648 5.86618 29.9603 6.00115 29.5856C6.13612 29.2108 6.37232 28.8804 6.68377 28.6307C6.68377 28.6307 22.3461 19.6141 23.3526 18.9729C23.6603 18.7808 24.0161 18.6789 24.3793 18.6789C24.7425 18.6789 25.0983 18.7808 25.406 18.9729C25.406 18.9729 39.1357 26.9877 40.7462 27.6689C41.7339 28.2155 42.4913 29.0973 42.8801 30.1535C42.8801 31.2756 42.8801 46.4235 42.8801 48.1868C42.929 48.7117 42.826 49.2395 42.5835 49.7081C42.341 50.1767 41.9689 50.5665 41.5112 50.8317L26.2918 59.7281C26.2175 59.7754 26.1564 59.8405 26.1141 59.9176C26.0719 59.9947 26.0499 60.0811 26.0502 60.1689V66.0197C26.0529 66.1028 26.0772 66.1837 26.1207 66.2547C26.1642 66.3256 26.2255 66.3841 26.2985 66.4245C26.3715 66.4649 26.4537 66.4857 26.5372 66.485C26.6207 66.4843 26.7026 66.4621 26.7749 66.4205L46.4635 54.9593C47.0885 54.6775 47.6434 54.262 48.0887 53.7426C48.5341 53.2231 48.859 52.6124 49.0403 51.9538V27.9094C48.9635 26.6646 48.3998 25.4994 47.4701 24.6634ZM20.4134 37.7275C20.4104 37.4746 20.4763 37.2257 20.6038 37.007C20.7314 36.7883 20.9161 36.608 21.1382 36.4852L26.8555 33.2392C26.99 33.1619 27.1425 33.1212 27.2978 33.1211C27.4531 33.121 27.6058 33.1615 27.7403 33.2387C27.8749 33.3158 27.9868 33.4268 28.0647 33.5605C28.1426 33.6943 28.1838 33.846 28.1842 34.0006V41.4543C28.1866 41.6458 28.1398 41.8347 28.0481 42.003C27.9565 42.1714 27.8232 42.3136 27.6607 42.4161L20.9368 46.4235C20.8604 46.4555 20.7774 46.469 20.6946 46.4628C20.6119 46.4566 20.5318 46.4309 20.4611 46.3878C20.3903 46.3448 20.3308 46.2856 20.2875 46.2151C20.2442 46.1447 20.2184 46.065 20.2121 45.9827L20.4134 37.7275Z" fill="url(#paint1_linear_433_5)"/>
<defs>
<linearGradient id="paint0_linear_433_5" x1="76" y1="3.47903" x2="239.949" y2="15.8251" gradientUnits="userSpaceOnUse">
<stop stop-color="white"/>
<stop offset="1" stop-color="white"/>
</linearGradient>
<linearGradient id="paint1_linear_433_5" x1="0.000100328" y1="44.5" x2="49.0403" y2="44.5" gradientUnits="userSpaceOnUse">
<stop stop-color="#EA5B0C"/>
<stop offset="1" stop-color="#F28D33"/>
</linearGradient>
</defs>
</svg>
