<svg id="Camada_1" data-name="Camada 1" xmlns="http://www.w3.org/2000/svg" xmlns:xlink="http://www.w3.org/1999/xlink" viewBox="0 0 16 16"><defs><style>.cls-1{fill:url(#Gradiente_sem_nome_46);}.cls-2{fill:#fff;}</style><linearGradient id="Gradiente_sem_nome_46" y1="8" x2="16" y2="8" gradientUnits="userSpaceOnUse"><stop offset="0" stop-color="#ea5b0c"/><stop offset="1" stop-color="#f28d33"/></linearGradient></defs><path class="cls-1" d="M1.7,0H8.3A7.7,7.7,0,0,1,16,7.7v6.6A1.7,1.7,0,0,1,14.3,16H1.7A1.7,1.7,0,0,1,0,14.3V1.7A1.7,1.7,0,0,1,1.7,0Z"/><path class="cls-2" d="M216.14,56.46h0l-4.08-2.38a.92.92,0,0,0-.86-.12h0l-4.31,2.52a.59.59,0,0,0-.29.44h0v8a.47.47,0,0,0,.18.43L209.62,67h0a.85.85,0,0,0,1-.7v-4a.09.09,0,0,1,0-.08l1.56-.89.56-.32a.65.65,0,0,0,.32-.57l-.09-3h0a.1.1,0,0,0-.05-.08c-.24-.14-.71-.4-.85-.5a.32.32,0,0,0-.37,0l-2.16,1.29a.31.31,0,0,0-.14.27v6.88a.1.1,0,0,1-.14.09l-1.51-.87a.08.08,0,0,1,0-.08c0-.62,0-6.52,0-6.83s.15-.43.15-.43,3.16-1.83,3.36-2a.42.42,0,0,1,.42,0s2.76,1.59,3.08,1.76a1,1,0,0,1,.44.51v0c0,.23,0,3.3,0,3.65a.54.54,0,0,1-.28.53l-3.09,1.78a.09.09,0,0,0-.05.08v1.18a.1.1,0,0,0,.14.09l4-2.32a1,1,0,0,0,.53-.61V57.1A.93.93,0,0,0,216.14,56.46Zm-5.45,2.64a.28.28,0,0,1,.15-.25l1.15-.66a.18.18,0,0,1,.27.15v1.51a.21.21,0,0,1-.11.19l-1.35.81a.1.1,0,0,1-.15-.09Z" transform="translate(-203.28 -52.08)"/></svg>